<?xml version="1.0" standalone="no"?>
<!DOCTYPE svg PUBLIC "-//W3C//DTD SVG 20010904//EN"
 "http://www.w3.org/TR/2001/REC-SVG-20010904/DTD/svg10.dtd">
<svg version="1.0" xmlns="http://www.w3.org/2000/svg"
 width="500.000000pt" height="500.000000pt" viewBox="0 0 500.000000 500.000000"
 preserveAspectRatio="xMidYMid meet">

<g transform="translate(0.000000,500.000000) scale(0.100000,-0.100000)"
fill="#000000" stroke="none">
<path d="M1770 3436 c-70 -15 -118 -38 -168 -81 -122 -105 -166 -302 -99 -448
29 -65 68 -105 341 -358 247 -229 267 -256 268 -372 2 -142 -77 -253 -208
-293 -62 -18 -169 -18 -226 2 -104 35 -186 151 -193 275 -2 35 -7 65 -12 67
-17 7 -35 -87 -37 -190 -1 -98 1 -108 22 -131 73 -77 335 -130 480 -97 162 38
275 163 303 336 20 121 -14 249 -88 330 -15 18 -125 121 -243 229 -246 225
-265 245 -291 300 -26 55 -25 156 2 215 72 161 295 212 431 100 40 -33 78
-102 78 -143 0 -15 5 -27 10 -27 6 0 10 51 10 133 l0 133 -132 17 c-151 20
-171 20 -248 3z"/>
<path d="M3370 3435 c-39 -9 -170 -13 -447 -14 -342 -1 -393 -3 -393 -16 0
-11 11 -15 38 -15 43 0 86 -25 113 -66 18 -28 19 -59 19 -697 0 -730 2 -703
-58 -746 -16 -11 -48 -23 -71 -27 -112 -18 -2 -24 428 -24 l469 0 10 28 c6 15
33 90 60 167 28 77 53 148 57 158 4 10 3 17 -3 17 -6 0 -30 -36 -53 -80 -48
-94 -124 -169 -196 -196 -39 -14 -90 -18 -270 -22 l-223 -4 0 341 0 341 195 0
c210 0 248 -7 279 -51 9 -13 16 -40 16 -61 0 -21 5 -38 10 -38 6 0 10 67 10
180 0 113 -4 180 -10 180 -5 0 -10 -16 -10 -36 0 -28 -8 -44 -34 -70 l-34 -34
-211 0 -211 0 0 351 0 350 249 -3 c234 -3 251 -4 278 -24 35 -26 63 -79 63
-121 0 -18 5 -33 10 -33 6 0 10 53 10 140 0 158 8 147 -90 125z"/>
<path d="M1930 1691 c0 -6 4 -13 10 -16 6 -3 7 1 4 9 -7 18 -14 21 -14 7z"/>
<path d="M2023 1660 c0 -25 2 -35 4 -22 2 12 2 32 0 45 -2 12 -4 2 -4 -23z"/>
<path d="M2103 1660 c0 -25 2 -35 4 -22 2 12 2 32 0 45 -2 12 -4 2 -4 -23z"/>
<path d="M2193 1660 c0 -25 2 -35 4 -22 2 12 2 32 0 45 -2 12 -4 2 -4 -23z"/>
<path d="M2803 1660 c0 -25 2 -35 4 -22 2 12 2 32 0 45 -2 12 -4 2 -4 -23z"/>
<path d="M2592 1660 c0 -14 2 -19 5 -12 2 6 2 18 0 25 -3 6 -5 1 -5 -13z"/>
<path d="M2692 1660 c0 -14 2 -19 5 -12 2 6 2 18 0 25 -3 6 -5 1 -5 -13z"/>
<path d="M3262 1660 c0 -14 2 -19 5 -12 2 6 2 18 0 25 -3 6 -5 1 -5 -13z"/>
<path d="M3315 1660 c10 -11 20 -20 23 -20 3 0 -3 9 -13 20 -10 11 -20 20 -23
20 -3 0 3 -9 13 -20z"/>
<path d="M1952 1640 c0 -14 2 -19 5 -12 2 6 2 18 0 25 -3 6 -5 1 -5 -13z"/>
</g>
</svg>
